<svg width="183" height="213" viewBox="0 0 183 213" fill="none" xmlns="http://www.w3.org/2000/svg">
<path id="Pattern" opacity="0.1" fill-rule="evenodd" clip-rule="evenodd" d="M177.618 10.8305C180.59 10.8305 183 8.40602 183 5.41525C183 2.42449 180.59 0 177.618 0C174.645 0 172.235 2.42449 172.235 5.41525C172.235 8.40602 174.645 10.8305 177.618 10.8305ZM183 34.2966C183 37.2874 180.59 39.7119 177.618 39.7119C174.645 39.7119 172.235 37.2874 172.235 34.2966C172.235 31.3058 174.645 28.8814 177.618 28.8814C180.59 28.8814 183 31.3058 183 34.2966ZM177.618 68.5932C180.59 68.5932 183 66.1687 183 63.178C183 60.1872 180.59 57.7627 177.618 57.7627C174.645 57.7627 172.235 60.1872 172.235 63.178C172.235 66.1687 174.645 68.5932 177.618 68.5932ZM183 92.0593C183 95.0501 180.59 97.4746 177.618 97.4746C174.645 97.4746 172.235 95.0501 172.235 92.0593C172.235 89.0686 174.645 86.6441 177.618 86.6441C180.59 86.6441 183 89.0686 183 92.0593ZM177.618 126.356C180.59 126.356 183 123.931 183 120.941C183 117.95 180.59 115.525 177.618 115.525C174.645 115.525 172.235 117.95 172.235 120.941C172.235 123.931 174.645 126.356 177.618 126.356ZM183 149.822C183 152.813 180.59 155.237 177.618 155.237C174.645 155.237 172.235 152.813 172.235 149.822C172.235 146.831 174.645 144.407 177.618 144.407C180.59 144.407 183 146.831 183 149.822ZM177.618 184.119C180.59 184.119 183 181.694 183 178.703C183 175.713 180.59 173.288 177.618 173.288C174.645 173.288 172.235 175.713 172.235 178.703C172.235 181.694 174.645 184.119 177.618 184.119ZM10.7647 207.585C10.7647 210.576 8.35494 213 5.38235 213C2.40976 213 0 210.576 0 207.585C0 204.594 2.40976 202.169 5.38235 202.169C8.35494 202.169 10.7647 204.594 10.7647 207.585ZM34.0882 213C37.0608 213 39.4706 210.576 39.4706 207.585C39.4706 204.594 37.0608 202.169 34.0882 202.169C31.1156 202.169 28.7059 204.594 28.7059 207.585C28.7059 210.576 31.1156 213 34.0882 213ZM68.1765 207.585C68.1765 210.576 65.7667 213 62.7941 213C59.8215 213 57.4118 210.576 57.4118 207.585C57.4118 204.594 59.8215 202.169 62.7941 202.169C65.7667 202.169 68.1765 204.594 68.1765 207.585ZM91.5 213C94.4726 213 96.8824 210.576 96.8824 207.585C96.8824 204.594 94.4726 202.169 91.5 202.169C88.5274 202.169 86.1176 204.594 86.1176 207.585C86.1176 210.576 88.5274 213 91.5 213ZM125.588 207.585C125.588 210.576 123.178 213 120.206 213C117.233 213 114.824 210.576 114.824 207.585C114.824 204.594 117.233 202.169 120.206 202.169C123.178 202.169 125.588 204.594 125.588 207.585ZM148.912 213C151.884 213 154.294 210.576 154.294 207.585C154.294 204.594 151.884 202.169 148.912 202.169C145.939 202.169 143.529 204.594 143.529 207.585C143.529 210.576 145.939 213 148.912 213ZM177.618 213C180.59 213 183 210.576 183 207.585C183 204.594 180.59 202.169 177.618 202.169C174.645 202.169 172.235 204.594 172.235 207.585C172.235 210.576 174.645 213 177.618 213ZM154.294 178.703C154.294 181.694 151.884 184.119 148.912 184.119C145.939 184.119 143.529 181.694 143.529 178.703C143.529 175.713 145.939 173.288 148.912 173.288C151.884 173.288 154.294 175.713 154.294 178.703ZM120.206 184.119C123.178 184.119 125.588 181.694 125.588 178.703C125.588 175.713 123.178 173.288 120.206 173.288C117.233 173.288 114.824 175.713 114.824 178.703C114.824 181.694 117.233 184.119 120.206 184.119ZM96.8824 178.703C96.8824 181.694 94.4726 184.119 91.5 184.119C88.5274 184.119 86.1176 181.694 86.1176 178.703C86.1176 175.713 88.5274 173.288 91.5 173.288C94.4726 173.288 96.8824 175.713 96.8824 178.703ZM62.7941 184.119C65.7667 184.119 68.1765 181.694 68.1765 178.703C68.1765 175.713 65.7667 173.288 62.7941 173.288C59.8215 173.288 57.4118 175.713 57.4118 178.703C57.4118 181.694 59.8215 184.119 62.7941 184.119ZM39.4706 178.703C39.4706 181.694 37.0608 184.119 34.0882 184.119C31.1156 184.119 28.7059 181.694 28.7059 178.703C28.7059 175.713 31.1156 173.288 34.0882 173.288C37.0608 173.288 39.4706 175.713 39.4706 178.703ZM5.38235 184.119C8.35494 184.119 10.7647 181.694 10.7647 178.703C10.7647 175.713 8.35494 173.288 5.38235 173.288C2.40976 173.288 0 175.713 0 178.703C0 181.694 2.40976 184.119 5.38235 184.119ZM148.912 155.237C151.884 155.237 154.294 152.813 154.294 149.822C154.294 146.831 151.884 144.407 148.912 144.407C145.939 144.407 143.529 146.831 143.529 149.822C143.529 152.813 145.939 155.237 148.912 155.237ZM125.588 149.822C125.588 152.813 123.178 155.237 120.206 155.237C117.233 155.237 114.824 152.813 114.824 149.822C114.824 146.831 117.233 144.407 120.206 144.407C123.178 144.407 125.588 146.831 125.588 149.822ZM91.5 155.237C94.4726 155.237 96.8824 152.813 96.8824 149.822C96.8824 146.831 94.4726 144.407 91.5 144.407C88.5274 144.407 86.1176 146.831 86.1176 149.822C86.1176 152.813 88.5274 155.237 91.5 155.237ZM68.1765 149.822C68.1765 152.813 65.7667 155.237 62.7941 155.237C59.8215 155.237 57.4118 152.813 57.4118 149.822C57.4118 146.831 59.8215 144.407 62.7941 144.407C65.7667 144.407 68.1765 146.831 68.1765 149.822ZM34.0882 155.237C37.0608 155.237 39.4706 152.813 39.4706 149.822C39.4706 146.831 37.0608 144.407 34.0882 144.407C31.1156 144.407 28.7059 146.831 28.7059 149.822C28.7059 152.813 31.1156 155.237 34.0882 155.237ZM10.7647 149.822C10.7647 152.813 8.35494 155.237 5.38235 155.237C2.40976 155.237 0 152.813 0 149.822C0 146.831 2.40976 144.407 5.38235 144.407C8.35494 144.407 10.7647 146.831 10.7647 149.822ZM154.294 120.941C154.294 123.931 151.884 126.356 148.912 126.356C145.939 126.356 143.529 123.931 143.529 120.941C143.529 117.95 145.939 115.525 148.912 115.525C151.884 115.525 154.294 117.95 154.294 120.941ZM120.206 126.356C123.178 126.356 125.588 123.931 125.588 120.941C125.588 117.95 123.178 115.525 120.206 115.525C117.233 115.525 114.824 117.95 114.824 120.941C114.824 123.931 117.233 126.356 120.206 126.356ZM96.8824 120.941C96.8824 123.931 94.4726 126.356 91.5 126.356C88.5274 126.356 86.1176 123.931 86.1176 120.941C86.1176 117.95 88.5274 115.525 91.5 115.525C94.4726 115.525 96.8824 117.95 96.8824 120.941ZM62.7941 126.356C65.7667 126.356 68.1765 123.931 68.1765 120.941C68.1765 117.95 65.7667 115.525 62.7941 115.525C59.8215 115.525 57.4118 117.95 57.4118 120.941C57.4118 123.931 59.8215 126.356 62.7941 126.356ZM39.4706 120.941C39.4706 123.931 37.0608 126.356 34.0882 126.356C31.1156 126.356 28.7059 123.931 28.7059 120.941C28.7059 117.95 31.1156 115.525 34.0882 115.525C37.0608 115.525 39.4706 117.95 39.4706 120.941ZM5.38235 126.356C8.35494 126.356 10.7647 123.931 10.7647 120.941C10.7647 117.95 8.35494 115.525 5.38235 115.525C2.40976 115.525 0 117.95 0 120.941C0 123.931 2.40976 126.356 5.38235 126.356ZM148.912 97.4746C151.884 97.4746 154.294 95.0501 154.294 92.0593C154.294 89.0686 151.884 86.6441 148.912 86.6441C145.939 86.6441 143.529 89.0686 143.529 92.0593C143.529 95.0501 145.939 97.4746 148.912 97.4746ZM125.588 92.0593C125.588 95.0501 123.178 97.4746 120.206 97.4746C117.233 97.4746 114.824 95.0501 114.824 92.0593C114.824 89.0686 117.233 86.6441 120.206 86.6441C123.178 86.6441 125.588 89.0686 125.588 92.0593ZM91.5 97.4746C94.4726 97.4746 96.8824 95.0501 96.8824 92.0593C96.8824 89.0686 94.4726 86.6441 91.5 86.6441C88.5274 86.6441 86.1176 89.0686 86.1176 92.0593C86.1176 95.0501 88.5274 97.4746 91.5 97.4746ZM68.1765 92.0593C68.1765 95.0501 65.7667 97.4746 62.7941 97.4746C59.8215 97.4746 57.4118 95.0501 57.4118 92.0593C57.4118 89.0686 59.8215 86.6441 62.7941 86.6441C65.7667 86.6441 68.1765 89.0686 68.1765 92.0593ZM34.0882 97.4746C37.0608 97.4746 39.4706 95.0501 39.4706 92.0593C39.4706 89.0686 37.0608 86.6441 34.0882 86.6441C31.1156 86.6441 28.7059 89.0686 28.7059 92.0593C28.7059 95.0501 31.1156 97.4746 34.0882 97.4746ZM10.7647 92.0593C10.7647 95.0501 8.35494 97.4746 5.38235 97.4746C2.40976 97.4746 0 95.0501 0 92.0593C0 89.0686 2.40976 86.6441 5.38235 86.6441C8.35494 86.6441 10.7647 89.0686 10.7647 92.0593ZM154.294 63.178C154.294 66.1687 151.884 68.5932 148.912 68.5932C145.939 68.5932 143.529 66.1687 143.529 63.178C143.529 60.1872 145.939 57.7627 148.912 57.7627C151.884 57.7627 154.294 60.1872 154.294 63.178ZM120.206 68.5932C123.178 68.5932 125.588 66.1687 125.588 63.178C125.588 60.1872 123.178 57.7627 120.206 57.7627C117.233 57.7627 114.824 60.1872 114.824 63.178C114.824 66.1687 117.233 68.5932 120.206 68.5932ZM96.8824 63.178C96.8824 66.1687 94.4726 68.5932 91.5 68.5932C88.5274 68.5932 86.1176 66.1687 86.1176 63.178C86.1176 60.1872 88.5274 57.7627 91.5 57.7627C94.4726 57.7627 96.8824 60.1872 96.8824 63.178ZM62.7941 68.5932C65.7667 68.5932 68.1765 66.1687 68.1765 63.178C68.1765 60.1872 65.7667 57.7627 62.7941 57.7627C59.8215 57.7627 57.4118 60.1872 57.4118 63.178C57.4118 66.1687 59.8215 68.5932 62.7941 68.5932ZM39.4706 63.178C39.4706 66.1687 37.0608 68.5932 34.0882 68.5932C31.1156 68.5932 28.7059 66.1687 28.7059 63.178C28.7059 60.1872 31.1156 57.7627 34.0882 57.7627C37.0608 57.7627 39.4706 60.1872 39.4706 63.178ZM5.38235 68.5932C8.35494 68.5932 10.7647 66.1687 10.7647 63.178C10.7647 60.1872 8.35494 57.7627 5.38235 57.7627C2.40976 57.7627 0 60.1872 0 63.178C0 66.1687 2.40976 68.5932 5.38235 68.5932ZM148.912 39.7119C151.884 39.7119 154.294 37.2874 154.294 34.2966C154.294 31.3058 151.884 28.8814 148.912 28.8814C145.939 28.8814 143.529 31.3058 143.529 34.2966C143.529 37.2874 145.939 39.7119 148.912 39.7119ZM125.588 34.2966C125.588 37.2874 123.178 39.7119 120.206 39.7119C117.233 39.7119 114.824 37.2874 114.824 34.2966C114.824 31.3058 117.233 28.8814 120.206 28.8814C123.178 28.8814 125.588 31.3058 125.588 34.2966ZM91.5 39.7119C94.4726 39.7119 96.8824 37.2874 96.8824 34.2966C96.8824 31.3058 94.4726 28.8814 91.5 28.8814C88.5274 28.8814 86.1176 31.3058 86.1176 34.2966C86.1176 37.2874 88.5274 39.7119 91.5 39.7119ZM68.1765 34.2966C68.1765 37.2874 65.7667 39.7119 62.7941 39.7119C59.8215 39.7119 57.4118 37.2874 57.4118 34.2966C57.4118 31.3058 59.8215 28.8814 62.7941 28.8814C65.7667 28.8814 68.1765 31.3058 68.1765 34.2966ZM34.0882 39.7119C37.0608 39.7119 39.4706 37.2874 39.4706 34.2966C39.4706 31.3058 37.0608 28.8814 34.0882 28.8814C31.1156 28.8814 28.7059 31.3058 28.7059 34.2966C28.7059 37.2874 31.1156 39.7119 34.0882 39.7119ZM10.7647 34.2966C10.7647 37.2874 8.35494 39.7119 5.38235 39.7119C2.40976 39.7119 0 37.2874 0 34.2966C0 31.3058 2.40976 28.8814 5.38235 28.8814C8.35494 28.8814 10.7647 31.3058 10.7647 34.2966ZM154.294 5.41525C154.294 8.40602 151.884 10.8305 148.912 10.8305C145.939 10.8305 143.529 8.40602 143.529 5.41525C143.529 2.42449 145.939 0 148.912 0C151.884 0 154.294 2.42449 154.294 5.41525ZM120.206 10.8305C123.178 10.8305 125.588 8.40602 125.588 5.41525C125.588 2.42449 123.178 0 120.206 0C117.233 0 114.824 2.42449 114.824 5.41525C114.824 8.40602 117.233 10.8305 120.206 10.8305ZM96.8824 5.41525C96.8824 8.40602 94.4726 10.8305 91.5 10.8305C88.5274 10.8305 86.1176 8.40602 86.1176 5.41525C86.1176 2.42449 88.5274 0 91.5 0C94.4726 0 96.8824 2.42449 96.8824 5.41525ZM62.7941 10.8305C65.7667 10.8305 68.1765 8.40602 68.1765 5.41525C68.1765 2.42449 65.7667 0 62.7941 0C59.8215 0 57.4118 2.42449 57.4118 5.41525C57.4118 8.40602 59.8215 10.8305 62.7941 10.8305ZM39.4706 5.41525C39.4706 8.40602 37.0608 10.8305 34.0882 10.8305C31.1156 10.8305 28.7059 8.40602 28.7059 5.41525C28.7059 2.42449 31.1156 0 34.0882 0C37.0608 0 39.4706 2.42449 39.4706 5.41525ZM5.38235 10.8305C8.35494 10.8305 10.7647 8.40602 10.7647 5.41525C10.7647 2.42449 8.35494 0 5.38235 0C2.40976 0 0 2.42449 0 5.41525C0 8.40602 2.40976 10.8305 5.38235 10.8305Z" fill="#5A7184"/>
</svg>
