<svg width="118" height="17" viewBox="0 0 118 17" fill="none" xmlns="http://www.w3.org/2000/svg">
<path fill-rule="evenodd" clip-rule="evenodd" d="M64.7068 7.89399C64.7068 7.89399 63.5588 7.19551 62.8489 6.92524C62.8489 6.92524 60.6515 5.92316 60.2155 5.44639C60.2155 5.44639 59.3591 4.65226 59.8606 3.72988C59.8606 3.72988 60.0705 3.12631 60.9755 3.12631C60.9755 3.12631 62.1537 3.19007 62.1537 4.14288V5.48697H66.3763L66.3689 3.50744C66.3689 3.50744 66.6936 0.2657 61.3952 0.122959C61.3952 0.122959 57.228 -0.146582 56.0328 2.06191C56.0328 2.06191 55.5637 2.55462 55.5637 4.27041V5.51015C55.5637 5.51015 55.5158 6.94046 56.2581 7.86211C56.2581 7.86211 56.6779 8.46641 57.7118 9.13301C57.7118 9.13301 59.8113 10.2452 61.0712 10.8821C61.0712 10.8821 62.343 11.5966 62.1758 12.7334C62.1758 12.7334 62.072 13.9007 60.8437 13.8529C60.8437 13.8529 59.7207 13.8036 59.7207 12.6588V11.3154H55.2213V13.2667C55.2213 13.2667 55.0954 16.9982 60.8768 16.9982C60.8768 16.9982 66.4013 17.1084 66.659 13.1689V11.5799C66.6583 11.5799 66.8542 9.16562 64.7068 7.89399ZM43.0891 0.58741L41.6752 9.30546H41.3446L39.994 0.665664H32.9408L32.5873 16.4534H36.7634L36.8135 4.55806H37.142L39.3556 16.4512H43.7489L45.9353 4.56241H46.2262L46.3271 16.4534H50.5253L50.0731 0.58741H43.0891ZM18.2298 0.653346L15.4513 16.4352H19.9471L21.5929 4.19868H21.9626L23.6077 16.4352H28.1027L25.325 0.653346H18.2298ZM112.564 7.67662V10.0047H113.717V12.5037C113.717 13.7253 112.656 13.7478 112.656 13.7478C111.366 13.7478 111.414 12.587 111.414 12.587V3.9429C111.414 3.0524 112.559 3.00458 112.559 3.00458C113.658 3.00458 113.666 4.0668 113.666 4.0668V5.38118H117.898C118.037 2.81547 117.517 2.19451 117.517 2.19451C116.467 -0.125569 112.495 0.00123114 112.495 0.00123114C106.391 0.00123114 107.068 4.60951 107.068 4.60951V12.9674C107.199 17.2895 113.214 16.8504 113.316 16.8468C115.991 16.5555 116.799 15.7186 116.799 15.7186C117.543 15.1752 117.734 14.4224 117.734 14.4224C117.947 13.984 118 12.587 118 12.587V7.67662H112.564ZM98.5333 10.2452H98.3492L94.0538 0.591757H88.9145V16.4548H93.0972L92.8468 6.80279H93.0339L97.4839 16.4548H102.467V0.590308H98.2314L98.5333 10.2452ZM78.7043 12.5023C78.7043 12.5023 78.7647 13.8043 77.5378 13.8043C77.5378 13.8043 76.2477 13.8724 76.2477 12.5349L76.2344 0.601177H71.6467V12.44C71.6467 12.44 71.1761 16.9207 77.6026 16.9207C77.6026 16.9207 83.1875 16.9859 83.1875 12.6457V0.601901H78.7043V12.5023ZM9.48356 7.89399C9.48356 7.89399 8.33699 7.19551 7.62636 6.92597C7.62636 6.92597 5.43042 5.92461 4.99447 5.44711C4.99447 5.44711 4.13804 4.65153 4.64027 3.73133C4.64027 3.73133 4.8494 3.12776 5.7537 3.12776C5.7537 3.12776 6.93268 3.1908 6.93268 4.14361V5.48769H11.1567L11.1486 3.50744C11.1486 3.50744 11.4711 0.2657 6.17492 0.123684C6.17492 0.123684 5.77579 0.0983238 5.19036 0.127307C5.19036 0.127307 1.98187 0.296857 0.834559 2.02858C0.827932 2.04163 0.818358 2.05105 0.811731 2.06264C0.811731 2.06264 0.343381 2.55462 0.343381 4.27113V5.51088C0.343381 5.51088 0.294779 6.94118 1.03781 7.86284C1.03781 7.86284 1.45755 8.46713 2.49146 9.13374C2.49146 9.13374 4.59019 10.246 5.85017 10.8829C5.85017 10.8829 7.1234 11.5958 6.95477 12.7341C6.95477 12.7341 6.85094 13.9014 5.62336 13.8536C5.62336 13.8536 4.50035 13.8043 4.50035 12.6595V11.3154H0.00021942V13.2681C0.00021942 13.2681 -0.125705 16.9997 5.65576 16.9997C5.65576 16.9997 11.1788 17.1098 11.4387 13.1703V11.5828C11.4387 11.5813 11.6316 9.16562 9.48356 7.89399Z" fill="#B3BAC5"/>
</svg>
